# xmcd
#
# Track frame offsets:
#	183
#	12598
#	29325
#	43320
#	57523
#	71255
#	81573
#	92320
#	107343
#	120110
#	135998
#	150048
#	164183
#	176343
#	185730
#	194980
#	207790
#	215645
#	230188
#	239718
#	253388
#
# Disc length: 3533 seconds
#
# Revision: 2
# Processed by: cddbd v1.5.2PL0 Copyright (c) Steve Scherf et al.
# Submitted via: EasyCDDAExtractor 12.0.1.1
#
DISCID=330dcb15
DTITLE=Giants Of Latin - Vol 2
DYEAR=1900
DGENRE=Dance
TTITLE0=SB 49 - Meu Piao
TTITLE1=SB 50 - Aquarella
TTITLE2=SB 50 - Comment Allez-vous
TTITLE3=SB 50 - Agua
TTITLE4=CC 30 - Speak Up Mambo
TTITLE5=CC 30 - Historia De Un Amor
TTITLE6=CC 30 - Oye Como Va
TTITLE7=CC 30 - Alta Sociedad
TTITLE8=CC 30 - Tzigane
TTITLE9=RB 26 - Saudade De Un Amor
TTITLE10=RB 26 - Only Love
TTITLE11=RB 26 - Saudade Do Rio
TTITLE12=RB 26 - Look To The Sky
TTITLE13=SB 50 - Copa Cabana
TTITLE14=SB 50 - Guanabana Bay
TTITLE15=SB 50 - O Aquitiputa
TTITLE16=JV 42 - Buona Sera
TTITLE17=JV 40 - To Jive Or Not To Jive
TTITLE18=PD 60 - Spanish Gipsy Dance
TTITLE19=MA 38 - Chero Do Carolina
TTITLE20=MA 50 - Mambo Inn
EXTD=
EXTT0=
EXTT1=
EXTT2=
EXTT3=
EXTT4=
EXTT5=
EXTT6=
EXTT7=
EXTT8=
EXTT9=
EXTT10=
EXTT11=
EXTT12=
EXTT13=
EXTT14=
EXTT15=
EXTT16=
EXTT17=
EXTT18=
EXTT19=
EXTT20=
PLAYORDER=
